<svg id="visual" viewBox="0 0 150 600" width="150" height="600" xmlns="http://www.w3.org/2000/svg" xmlns:xlink="http://www.w3.org/1999/xlink" version="1.1"><path d="M54 600L55.7 587.5C57.3 575 60.7 550 65.8 525C71 500 78 475 75 450C72 425 59 400 56.5 375C54 350 62 325 70.7 300C79.3 275 88.7 250 93.2 225C97.7 200 97.3 175 91.7 150C86 125 75 100 66.7 75C58.3 50 52.7 25 49.8 12.5L47 0L150 0L150 12.5C150 25 150 50 150 75C150 100 150 125 150 150C150 175 150 200 150 225C150 250 150 275 150 300C150 325 150 350 150 375C150 400 150 425 150 450C150 475 150 500 150 525C150 550 150 575 150 587.5L150 600Z" fill="#0066FF" stroke-linecap="round" stroke-linejoin="miter"></path></svg>